<svg width="2739" height="2745" viewBox="0 0 2739 2745" fill="#DED6A7" xmlns="http://www.w3.org/2000/svg">
<circle cx="1369.5" cy="1369.5" r="1369.5" fill="#DED6A7"/>
<path d="M1010 45L1013 205L1122 428V460H1094L1066 388.5L1016.5 349H925.5L876 388.5L864 504H952.5L989.5 460C1003.33 453.833 1034.5 445.2 1048.5 460C1066 478.5 1066 495.5 1066 511.5C1066 524.3 1044.67 543.833 1034 552H989.5L952.5 525H891L864 552V623.5L913 680L982 693.5L1122 680L1173 649.5V584L1132 525L1144.5 511.5L1200 606.5L1213.5 722V852.5L1094 1112.5L876 1200.5L621.5 1307.5L556.5 1380L461 1464.5L419 1613.5L461 1728L556.5 1885L621.5 1865.5L864 1812H952.5L989.5 1919.5L1049.5 1980.5L1153 2003.5L1283 1919.5L1416.5 1865.5C1476.5 1859.33 1585.8 1882.9 1543 2026.5C1500.2 2170.1 1525.17 2262 1543 2290C1627 2345 1821.8 2403.7 1929 2198.5C2036.2 1993.3 1925.33 1904 1856.5 1885H1680.5L1592.5 1865.5L1543 1774L1554.5 1709L1680.5 1674.5L1856.5 1613.5L1929 1514L1891 1411L1680.5 1265.5L1543 1227.5L1416.5 1200.5C1383.33 1145.83 1336.9 1015.8 1416.5 933C1496.1 850.2 1424.33 665.833 1378.5 584L1244.5 460L1153 267.5L1094 130V29.5L1010 45Z" fill="#F3F3E6" stroke="#A69575" stroke-width="10"/>
<path d="M1349.5 685L1332.5 802C1326 846.833 1299.5 941.4 1245.5 961C1191.5 980.6 1247.67 1194.17 1282.5 1298.5L1349.5 1378L1412 1547L1456.5 1592H1595.5L1742.5 1562C1787.17 1532.33 1812 1497.5 1710 1425.5C1608 1353.5 1513.83 1325 1499 1298.5L1349.5 1241.5L1305 1097.5V998L1377 881.5V759.5L1349.5 685Z" fill="#DED6A7" stroke="#A69575" stroke-width="10"/>
<path d="M1099 1174L975.085 1287.78L788.957 1446.28C696.997 1478.9 549.591 1576.75 695.638 1707.12C878.196 1870.09 1009.76 1605.77 924.601 1590.36L1099 1419.94V1174Z" fill="#DED6A7" stroke="#A69575" stroke-width="10"/>
<path d="M87 1834C131.667 1848 231.7 1899.4 278.5 2003L420.5 2078H688.5C855.833 2032.17 1219.8 2004.9 1337 2262.5C1351.17 2286.17 1378.6 2356.1 1375 2446.5C1359.5 2455 1321 2459.4 1291 2409C1281.17 2356 1224.7 2259.2 1077.5 2296H872.5L688.5 2409H596.5L278.5 2204L165.5 2024.5L87 1834Z" fill="#F3F3E6" stroke="#A69575" stroke-width="10"/>
<path d="M1376.47 2461.22C1423.15 2474.48 1493.82 2517.6 1402.98 2584.04C1378.97 2594.78 1342.95 2626.93 1390.97 2669.61L1474.5 2728L1328 2739.5L1190.38 2728C991.465 2698.97 513.6 2546.13 283.5 2211.5L601.5 2222.63L891.755 2203L1091 2235L1267.92 2272.97L1376.47 2461.22Z" fill="#689EA1" stroke="#A69575" stroke-width="10"/>
<rect x="1033" y="1144" width="319" height="76" fill="#988364"/>
<path d="M514.5 1279L572 1236L632.5 1296L606.5 1382.5H546L488.5 1445.5L391 1330.5L474 1255.5L508 1283.5L514.5 1279Z" fill="#988364"/>
<path d="M300.5 1456.5H457V1565.5H492.5V1648.5L417 1667.5H369L292 1637V1456.5H300.5Z" fill="#988364"/>
<path d="M316 1766.5L419.5 1684L492.5 1757H547V1852L572.5 1889.5L492.5 1937L449.5 1880L388 1889.5L316 1766.5Z" fill="#988364"/>
<path d="M611.5 1517L633 1619.5L611.5 1642.5L633 1672.5L658 1676L660.5 1706.5H705L718 1706.5V1689.5H769L741.5 1619.5C777.833 1574 816.8 1484.7 682 1491.5L611.5 1517Z" fill="#988364"/>
<path d="M913.5 1432.5L890 1569L939 1615.5H1024L1083.5 1569L1086 1422L994.5 1394.5L964.5 1422L913.5 1432.5Z" fill="#988364"/>
<path d="M1258.5 1437L1398.5 1358L1452 1452L1418 1483.5C1411.33 1503.33 1406.6 1544.7 1441 1551.5L1354 1613.5L1277.5 1551.5L1318 1520L1258.5 1437Z" fill="#988364"/>
<path d="M1111.5 1890L1260.5 1762.5L1286 1785.5L1356 1737L1430.5 1837L1356 1928.5L1305 1905L1220 1968.5L1122 1960L1111.5 1890Z" fill="#988364"/>
<path d="M1716 1924.5L1892 1845L1945.5 1934L1903 1948.5V1991.5L1849.5 2021L1840 1991.5L1770 2021L1716 1924.5Z" fill="#988364"/>
<path d="M1577.5 2124.5L1664.5 2168.5L1611 2340.5L1498 2305.5L1577.5 2124.5Z" fill="#988364"/>
<path d="M1686.5 2168.5L1775.5 2117L1856.5 2292.5L1760.5 2339L1679 2172L1686.5 2168.5Z" fill="#988364"/>
</svg>
